<svg xmlns="http://www.w3.org/2000/svg" viewBox="0 0 24 24" aria-hidden="true"><path d="M12 .5C5.65.5.5 5.65.5 12a11.5 11.5 0 0 0 7.86 10.93c.57.1.78-.25.78-.55 0-.27-.01-1.17-.02-2.12-3.2.7-3.88-1.35-3.88-1.35-.52-1.33-1.28-1.69-1.28-1.69-1.05-.72.08-.71.08-.71 1.16.08 1.78 1.2 1.78 1.2 1.03 1.77 2.71 1.26 3.37.96.1-.75.4-1.26.72-1.55-2.56-.29-5.25-1.28-5.25-5.71 0-1.26.45-2.29 1.19-3.1-.12-.29-.52-1.46.11-3.03 0 0 .97-.31 3.19 1.18A11.1 11.1 0 0 1 12 6.32c.98 0 1.97.13 2.9.38 2.21-1.49 3.18-1.18 3.18-1.18.64 1.57.24 2.74.12 3.03.74.81 1.18 1.84 1.18 3.1 0 4.44-2.69 5.41-5.26 5.7.42.36.78 1.07.78 2.16 0 1.56-.01 2.81-.01 3.19 0 .3.2.66.79.55A11.5 11.5 0 0 0 23.5 12C23.5 5.65 18.35.5 12 .5Z" /></svg>